<?xml version="1.0" encoding="UTF-8" standalone="no"?>
<svg 
  class="MuiSvgIcon-root"
   focusable="false"
   viewBox="0 0  32 32"
   aria-hidden="true"
   role="presentation"
   data-mui-test="favoriteIcon"
   style="font-size:36px;"
   version="1.1"
   id="svg4"
   sodipodi:docname="103009492294f36fa8e9c4f164aea19c.svg"
   width="16"
   height="16"
   fill="#01539B"
   xmlns:inkscape="http://www.inkscape.org/namespaces/inkscape"
   xmlns:sodipodi="http://sodipodi.sourceforge.net/DTD/sodipodi-0.dtd"
   xmlns="http://www.w3.org/2000/svg"
   xmlns:svg="http://www.w3.org/2000/svg">
    <defs
     id="defs8" />
  <sodipodi:namedview
     id="namedview6"
     pagecolor="#ffffff"
     bordercolor="#666666"
     borderopacity="1.0"
     inkscape:pageshadow="2"
     inkscape:pageopacity="0.0"
     inkscape:pagecheckerboard="0" />
    <path d="M22.45 6a5.47 5.47 0 0 1 3.91 1.64 5.7 5.7 0 0 1 0 8L16 26.13 5.64 15.64a5.7 5.7 0 0 1 0-8 5.48 5.48 0 0 1 7.82 0l2.54 2.6 2.53-2.58A5.44 5.44 0 0 1 22.45 6m0-2a7.47 7.47 0 0 0-5.34 2.24L16 7.36l-1.11-1.12a7.49 7.49 0 0 0-10.68 0 7.72 7.72 0 0 0 0 10.82L16 29l11.79-11.94a7.72 7.72 0 0 0 0-10.82A7.49 7.49 0 0 0 22.45 4z" />
</svg>
