<?xml version="1.0" encoding="UTF-8"?>
<svg width="24px" height="20px" viewBox="0 0 24 20" version="1.1" xmlns="http://www.w3.org/2000/svg" xmlns:xlink="http://www.w3.org/1999/xlink">
    <!-- Generator: Sketch 41.2 (35397) - http://www.bohemiancoding.com/sketch -->
    <title>Artboard</title>
    <desc>Created with Sketch.</desc>
    <defs>
        <rect id="path-1" x="2" y="0" width="14" height="3"></rect>
        <mask id="mask-2" maskContentUnits="userSpaceOnUse" maskUnits="objectBoundingBox" x="0" y="0" width="14" height="3" fill="white">
            <use xlink:href="#path-1"></use>
        </mask>
        <rect id="path-3" x="8.5" y="6.5" width="2" height="5"></rect>
        <mask id="mask-4" maskContentUnits="userSpaceOnUse" maskUnits="objectBoundingBox" x="0" y="0" width="2" height="5" fill="white">
            <use xlink:href="#path-3"></use>
        </mask>
        <path d="M23.1593638,11 C23.1593638,11 23.1593638,12.3465171 23.1593638,14 L23.1593638,14 C23.1593638,15.6568542 21.8108035,17.008143 20.1518105,17.0181605 L14,17.055307" id="path-5"></path>
        <mask id="mask-6" maskContentUnits="userSpaceOnUse" maskUnits="objectBoundingBox" x="0" y="0" width="9.1593638" height="6.05530703" fill="white">
            <use xlink:href="#path-5"></use>
        </mask>
        <path d="M23.1593638,7 C23.1593638,7 23.1593638,8.34967041 23.1593638,10.0092545 L23.1593638,10.9907455 C23.1593638,12.6527109 21.8108035,14.008143 20.1518105,14.0181605 L14,14.055307" id="path-7"></path>
        <mask id="mask-8" maskContentUnits="userSpaceOnUse" maskUnits="objectBoundingBox" x="0" y="0" width="9.1593638" height="7.05530703" fill="white">
            <use xlink:href="#path-7"></use>
        </mask>
        <polyline id="path-9" points="6 4 18 4 18 14 0 14"></polyline>
        <mask id="mask-10" maskContentUnits="userSpaceOnUse" maskUnits="objectBoundingBox" x="0" y="0" width="18" height="10" fill="white">
            <use xlink:href="#path-9"></use>
        </mask>
    </defs>
    <g id="sync" stroke="none" stroke-width="1" fill="none" fill-rule="evenodd">
        <g id="Artboard">
            <use id="Rectangle-21" stroke="#323232" mask="url(#mask-2)" stroke-width="2" xlink:href="#path-1"></use>
            <rect id="Rectangle-20" fill="#323232" x="1" y="2" width="16" height="3"></rect>
            <use id="Rectangle-18" stroke="#323232" mask="url(#mask-4)" stroke-width="2" transform="translate(9.500000, 9.000000) rotate(-270.000000) translate(-9.500000, -9.000000) " xlink:href="#path-3"></use>
            <polyline id="Path-3" stroke="#323232" points="17.2225402 19.4541954 14.2324207 16.464076 17.2324207 13.464076"></polyline>
            <polyline id="Path-3" stroke="#323232" transform="translate(21.732421, 7.459136) rotate(-180.000000) translate(-21.732421, -7.459136) " points="23.2225402 10.4541954 20.2324207 7.46407595 23.2324207 4.46407595"></polyline>
            <use id="Rectangle-23" stroke="#323232" mask="url(#mask-6)" stroke-width="2" xlink:href="#path-5"></use>
            <use id="Rectangle-23-Copy" stroke="#323232" mask="url(#mask-8)" stroke-width="2" transform="translate(18.579682, 10.527654) rotate(-180.000000) translate(-18.579682, -10.527654) " xlink:href="#path-7"></use>
            <use id="Rectangle-24" stroke="#323232" mask="url(#mask-10)" stroke-width="2" transform="translate(9.000000, 9.000000) rotate(-180.000000) translate(-9.000000, -9.000000) " xlink:href="#path-9"></use>
        </g>
    </g>
</svg>