<?xml version="1.0" encoding="UTF-8" standalone="no"?>
<svg
   class="MuiSvgIcon-root"
   focusable="false"
   viewBox="0 0 28 28"
   aria-hidden="true"
   role="presentation"
   data-mui-test="informationIcon"
   style="font-size:36px"
   version="1.1"
   id="svg6"
   sodipodi:docname="6a101e4ac7c54eeb183282f7b0a81c32.svg"
   width="28"
   height="28"
   fill="#3D5465"
   xmlns:inkscape="http://www.inkscape.org/namespaces/inkscape"
   xmlns:sodipodi="http://sodipodi.sourceforge.net/DTD/sodipodi-0.dtd"
   xmlns="http://www.w3.org/2000/svg"
   xmlns:svg="http://www.w3.org/2000/svg">
  <defs
     id="defs10" />
  <sodipodi:namedview
     id="namedview8"
     pagecolor="#ffffff"
     bordercolor="#666666"
     borderopacity="1.0"
     inkscape:pageshadow="2"
     inkscape:pageopacity="0.0"
     inkscape:pagecheckerboard="0" />
  <path
     d="m 15,20 v -9 h -4 v 2 h 2 v 7 h -3 v 2 h 8 V 20 Z M 14,5 A 1.5,1.5 0 1 0 15.5,6.5 1.5,1.5 0 0 0 14,5 Z"
     id="path2" />
  <path
     d="M 14,28 A 14,14 0 1 1 28,14 14,14 0 0 1 14,28 Z M 14,2 A 12,12 0 1 0 26,14 12,12 0 0 0 14,2 Z"
     id="path4" />
</svg>
