<?xml version="1.0" encoding="utf-8"?>
<!-- Generated by IcoMoon.io -->
<!DOCTYPE svg PUBLIC "-//W3C//DTD SVG 1.1//EN" "http://www.w3.org/Graphics/SVG/1.1/DTD/svg11.dtd">
<svg version="1.1" xmlns="http://www.w3.org/2000/svg" xmlns:xlink="http://www.w3.org/1999/xlink" width="752" height="80" viewBox="0 0 752 80">
<svg id="icon-ft_audio_box" width="32" height="32" viewBox="0 0 32 32" x="0" y="0">
<path fill="#af6ee8" d="M25.067 8.533h-8.533v-8.533h-14.933v32h23.467z"></path>
<path fill="#eed2ff" d="M25.067 8.533l-8.533-8.533v8.533z"></path>
<path fill="#fff" d="M8 20.267h4.267l4.267 4.267v-13.867l-4.267 4.267h-4.267v5.333z"></path>
<path fill="#fff" d="M17.6 14.933v4.267c1.067 0 2.133-1.067 2.133-2.133s-1.067-2.133-2.133-2.133z"></path>
<path fill="#4178be" d="M17.493 31.68c-0.853 0-1.6-0.747-1.6-1.6v-10.987c0-0.853 0.747-1.6 1.6-1.6h10.987c0.853 0 1.6 0.747 1.6 1.6v10.987c0 0.853-0.747 1.6-1.6 1.6h-10.987z"></path>
<path fill="#fff" d="M28.373 17.813c0.747 0 1.28 0.533 1.28 1.28v10.987c0 0.747-0.533 1.28-1.28 1.28h-10.88c-0.747 0-1.28-0.533-1.28-1.28v-10.987c0-0.747 0.533-1.28 1.28-1.28h10.88zM28.373 17.067h-10.88c-1.067 0-2.027 0.853-2.027 2.027v10.987c0 1.067 0.853 2.027 2.027 2.027h10.987c1.067 0 2.027-0.853 2.027-2.027v-10.987c-0.107-1.173-0.96-2.027-2.133-2.027v0z"></path>
<path fill="#fff" d="M25.813 24.96c-0.107-0.533-0.64-2.027-2.347-2.133-0.64 0-1.28 0.107-1.92 0.427 0-0.747 0-1.387 0-2.133 0-0.427-0.213-0.64-0.533-0.64s-0.533 0.213-0.533 0.64c0 1.387 0 2.88 0 4.267 0 1.067 0.64 2.133 1.6 2.453 1.173 0.427 2.24 0.107 2.88-0.533 0.747-0.64 0.96-1.6 0.853-2.347zM23.147 27.093c-0.533 0-1.067-0.32-1.387-0.747-0.107-0.213-0.213-0.427-0.213-0.747 0-0.107 0-0.107 0-0.213s0-0.107 0-0.213c0.107-0.747 0.747-1.387 1.6-1.387 0.533 0 1.067 0.32 1.387 0.747 0.213 0.213 0.32 0.533 0.32 0.853-0.107 0.96-0.853 1.707-1.707 1.707z"></path>
</svg>
<svg id="icon-ft_charting_box" width="32" height="32" viewBox="0 0 32 32" x="48" y="0">
<path fill="#fff" d="M17.6 1.067l6.4 6.4h-6.4z"></path>
<path fill="#676767" d="M18.133 0h-16.533v32h23.467v-25.067l-6.933-6.933zM17.6 7.467v-6.4l6.4 6.4h-6.4z"></path>
<path fill="#fff" d="M24 30.933h-21.333v-29.867h13.867v7.467h7.467z"></path>
<path fill="#4178be" d="M6.933 22.4v-11.733h-1.067v12.8h14.933v-1.067z"></path>
<path fill="#4178be" d="M8 16h3.2v5.333h-3.2v-5.333z"></path>
<path fill="#4178be" d="M15.467 12.8h-3.2v8.533h3.2v-8.533zM14.4 20.267h-1.067v-6.4h1.067v6.4z"></path>
<path fill="#4178be" d="M16.533 13.867h3.2v1.067h-3.2v-1.067z"></path>
<path fill="#4178be" d="M16.533 16h3.2v1.067h-3.2v-1.067z"></path>
<path fill="#4178be" d="M16.533 18.133h3.2v1.067h-3.2v-1.067z"></path>
<path fill="#4178be" d="M16.533 20.267h3.2v1.067h-3.2v-1.067z"></path>
<path fill="#4178be" d="M17.493 31.68c-0.853 0-1.6-0.747-1.6-1.6v-10.987c0-0.853 0.747-1.6 1.6-1.6h10.987c0.853 0 1.6 0.747 1.6 1.6v10.987c0 0.853-0.747 1.6-1.6 1.6h-10.987z"></path>
<path fill="#fff" d="M28.373 17.813c0.747 0 1.28 0.533 1.28 1.28v10.987c0 0.747-0.533 1.28-1.28 1.28h-10.88c-0.747 0-1.28-0.533-1.28-1.28v-10.987c0-0.747 0.533-1.28 1.28-1.28h10.88zM28.373 17.067h-10.88c-1.067 0-2.027 0.853-2.027 2.027v10.987c0 1.067 0.853 2.027 2.027 2.027h10.987c1.067 0 2.027-0.853 2.027-2.027v-10.987c-0.107-1.173-0.96-2.027-2.133-2.027v0z"></path>
<path fill="#fff" d="M25.813 24.96c-0.107-0.533-0.64-2.027-2.347-2.133-0.64 0-1.28 0.107-1.92 0.427 0-0.747 0-1.387 0-2.133 0-0.427-0.213-0.64-0.533-0.64s-0.533 0.213-0.533 0.64c0 1.387 0 2.88 0 4.267 0 1.067 0.64 2.133 1.6 2.453 1.173 0.427 2.24 0.107 2.88-0.533 0.747-0.64 0.96-1.6 0.853-2.347zM23.147 27.093c-0.533 0-1.067-0.32-1.387-0.747-0.107-0.213-0.213-0.427-0.213-0.747 0-0.107 0-0.107 0-0.213s0-0.107 0-0.213c0.107-0.747 0.747-1.387 1.6-1.387 0.533 0 1.067 0.32 1.387 0.747 0.213 0.213 0.32 0.533 0.32 0.853-0.107 0.96-0.853 1.707-1.707 1.707z"></path>
</svg>
<svg id="icon-ft_code_box" width="32" height="32" viewBox="0 0 32 32" x="96" y="0">
<path fill="#af6ee8" d="M25.067 8.533h-8.533v-8.533h-14.933v32h23.467z"></path>
<path fill="#eed2ff" d="M25.067 8.533l-8.533-8.533v8.533z"></path>
<path fill="#fff" d="M10.88 13.013l-1.6-1.493-4.48 4.48 4.48 4.48 1.6-1.493-3.093-2.987z"></path>
<path fill="#fff" d="M15.787 13.013l1.6-1.493 4.48 4.48-4.48 4.48-1.6-1.493 3.093-2.987z"></path>
<path fill="#4178be" d="M17.493 31.68c-0.853 0-1.6-0.747-1.6-1.6v-10.987c0-0.853 0.747-1.6 1.6-1.6h10.987c0.853 0 1.6 0.747 1.6 1.6v10.987c0 0.853-0.747 1.6-1.6 1.6h-10.987z"></path>
<path fill="#fff" d="M28.48 17.813c0.747 0 1.28 0.533 1.28 1.28v10.987c0 0.747-0.533 1.28-1.28 1.28h-10.987c-0.747 0-1.28-0.533-1.28-1.28v-10.987c0-0.747 0.533-1.28 1.28-1.28h10.987zM28.48 17.067h-10.987c-1.067 0-2.027 0.853-2.027 2.027v10.987c0 1.067 0.853 2.027 2.027 2.027h10.987c1.067 0 2.027-0.853 2.027-2.027v-10.987c-0.107-1.173-0.96-2.027-2.027-2.027v0z"></path>
<path fill="#fff" d="M25.813 24.96c-0.107-0.533-0.64-2.027-2.347-2.133-0.64 0-1.28 0.107-1.92 0.427 0-0.747 0-1.387 0-2.133 0-0.427-0.213-0.64-0.533-0.64s-0.533 0.213-0.533 0.64c0 1.387 0 2.88 0 4.267 0 1.067 0.64 2.133 1.6 2.453 1.173 0.427 2.24 0.107 2.88-0.533 0.853-0.64 0.96-1.6 0.853-2.347zM23.147 27.093c-0.533 0-1.067-0.32-1.387-0.747-0.107-0.213-0.213-0.427-0.213-0.747 0-0.107 0-0.107 0-0.213s0-0.107 0-0.213c0.107-0.747 0.747-1.387 1.6-1.387 0.533 0 1.067 0.32 1.387 0.747 0.213 0.213 0.32 0.533 0.32 0.853 0 0.96-0.747 1.707-1.707 1.707z"></path>
</svg>
<svg id="icon-ft_contact_box" width="32" height="32" viewBox="0 0 32 32" x="144" y="0">
<path fill="#676767" d="M10.667 14.933v-2.133h-9.6v19.2h25.6v-17.067z"></path>
<path fill="#fff" d="M25.6 30.933v-14.933h-16v-2.133h-7.467v17.067z"></path>
<path fill="#4178be" d="M13.867 17.92c1.6 0 2.987 1.387 2.987 2.987s-1.387 2.987-2.987 2.987-2.987-1.387-2.987-2.987 1.387-2.987 2.987-2.987zM13.867 16.853c-2.24 0-4.053 1.813-4.053 4.053s1.813 4.053 4.053 4.053 4.053-1.813 4.053-4.053-1.813-4.053-4.053-4.053v0z"></path>
<path fill="#4178be" d="M16.32 25.6h-5.013c-0.853 0-1.707 0.747-1.707 1.6v1.6h8.533v-1.6c0-0.853-0.853-1.6-1.813-1.6z"></path>
<path fill="#4178be" d="M18.027 31.68c-0.853 0-1.6-0.747-1.6-1.6v-10.987c0-0.853 0.747-1.6 1.6-1.6h10.987c0.853 0 1.6 0.747 1.6 1.6v10.987c0 0.853-0.747 1.6-1.6 1.6h-10.987z"></path>
<path fill="#fff" d="M28.907 17.813c0.747 0 1.28 0.533 1.28 1.28v10.987c0 0.747-0.533 1.28-1.28 1.28h-10.88c-0.747 0-1.28-0.533-1.28-1.28v-10.987c0-0.747 0.533-1.28 1.28-1.28h10.88zM28.907 17.067h-10.88c-1.067 0-2.027 0.853-2.027 2.027v10.987c0 1.067 0.853 2.027 2.027 2.027h10.987c1.067 0 2.027-0.853 2.027-2.027v-10.987c-0.107-1.173-0.96-2.027-2.133-2.027v0z"></path>
<path fill="#fff" d="M26.347 24.96c-0.107-0.533-0.64-2.027-2.347-2.133-0.64 0-1.28 0.107-1.92 0.427 0-0.747 0-1.387 0-2.133 0-0.427-0.213-0.64-0.533-0.64s-0.533 0.213-0.533 0.64c0 1.387 0 2.88 0 4.267 0 1.067 0.64 2.133 1.6 2.453 1.173 0.427 2.24 0.107 2.88-0.533 0.747-0.64 0.96-1.6 0.853-2.347zM23.68 27.093c-0.533 0-1.067-0.32-1.387-0.747-0.107-0.213-0.213-0.427-0.213-0.747 0-0.107 0-0.107 0-0.213s0-0.107 0-0.213c0.107-0.747 0.747-1.387 1.6-1.387 0.533 0 1.067 0.32 1.387 0.747 0.213 0.213 0.32 0.533 0.32 0.853-0.107 0.96-0.853 1.707-1.707 1.707z"></path>
</svg>
<svg id="icon-ft_default_box" width="32" height="32" viewBox="0 0 32 32" x="192" y="0">
<path fill="#7cc7ff" d="M25.067 8.533l-8.533-8.533v8.533z"></path>
<path fill="#325c80" d="M25.067 8.533h-8.533v-8.533h-14.933v32h23.467z"></path>
<path fill="#4178be" d="M17.493 31.68c-0.853 0-1.6-0.747-1.6-1.6v-10.987c0-0.853 0.747-1.6 1.6-1.6h10.987c0.853 0 1.6 0.747 1.6 1.6v10.987c0 0.853-0.747 1.6-1.6 1.6h-10.987z"></path>
<path fill="#fff" d="M28.48 17.813c0.747 0 1.28 0.533 1.28 1.28v10.987c0 0.747-0.533 1.28-1.28 1.28h-10.987c-0.747 0-1.28-0.533-1.28-1.28v-10.987c0-0.747 0.533-1.28 1.28-1.28h10.987zM28.48 17.067h-10.987c-1.067 0-2.027 0.853-2.027 2.027v10.987c0 1.067 0.853 2.027 2.027 2.027h10.987c1.067 0 2.027-0.853 2.027-2.027v-10.987c-0.107-1.173-0.96-2.027-2.027-2.027v0z"></path>
<path fill="#fff" d="M25.813 24.96c-0.107-0.533-0.64-2.027-2.347-2.133-0.64 0-1.28 0.107-1.92 0.427 0-0.747 0-1.387 0-2.133 0-0.427-0.213-0.64-0.533-0.64s-0.533 0.213-0.533 0.64c0 1.387 0 2.88 0 4.267 0 1.067 0.64 2.133 1.6 2.453 1.173 0.427 2.24 0.107 2.88-0.533 0.853-0.64 0.96-1.6 0.853-2.347zM23.147 27.093c-0.533 0-1.067-0.32-1.387-0.747-0.107-0.213-0.213-0.427-0.213-0.747 0-0.107 0-0.107 0-0.213s0-0.107 0-0.213c0.107-0.747 0.747-1.387 1.6-1.387 0.533 0 1.067 0.32 1.387 0.747 0.213 0.213 0.32 0.533 0.32 0.853 0 0.96-0.747 1.707-1.707 1.707z"></path>
</svg>
<svg id="icon-ft_file_box" width="32" height="32" viewBox="0 0 32 32" x="240" y="0">
<path fill="#fff" d="M17.6 1.067l6.4 6.4h-6.4z"></path>
<path fill="#676767" d="M18.133 0h-16.533v32h23.467v-25.067l-6.933-6.933zM17.6 7.467v-6.4l6.4 6.4h-6.4z"></path>
<path fill="#fff" d="M24 30.933h-21.333v-29.867h13.867v7.467h7.467z"></path>
<path fill="#4178be" d="M17.493 31.68c-0.853 0-1.6-0.747-1.6-1.6v-10.987c0-0.853 0.747-1.6 1.6-1.6h10.987c0.853 0 1.6 0.747 1.6 1.6v10.987c0 0.853-0.747 1.6-1.6 1.6h-10.987z"></path>
<path fill="#fff" d="M28.373 17.813c0.747 0 1.28 0.533 1.28 1.28v10.987c0 0.747-0.533 1.28-1.28 1.28h-10.88c-0.747 0-1.28-0.533-1.28-1.28v-10.987c0-0.747 0.533-1.28 1.28-1.28h10.88zM28.373 17.067h-10.88c-1.067 0-2.027 0.853-2.027 2.027v10.987c0 1.067 0.853 2.027 2.027 2.027h10.987c1.067 0 2.027-0.853 2.027-2.027v-10.987c-0.107-1.173-0.96-2.027-2.133-2.027v0z"></path>
<path fill="#fff" d="M25.813 24.96c-0.107-0.533-0.64-2.027-2.347-2.133-0.64 0-1.28 0.107-1.92 0.427 0-0.747 0-1.387 0-2.133 0-0.427-0.213-0.64-0.533-0.64s-0.533 0.213-0.533 0.64c0 1.387 0 2.88 0 4.267 0 1.067 0.64 2.133 1.6 2.453 1.173 0.427 2.24 0.107 2.88-0.533 0.747-0.64 0.96-1.6 0.853-2.347zM23.147 27.093c-0.533 0-1.067-0.32-1.387-0.747-0.107-0.213-0.213-0.427-0.213-0.747 0-0.107 0-0.107 0-0.213s0-0.107 0-0.213c0.107-0.747 0.747-1.387 1.6-1.387 0.533 0 1.067 0.32 1.387 0.747 0.213 0.213 0.32 0.533 0.32 0.853-0.107 0.96-0.853 1.707-1.707 1.707z"></path>
</svg>
<svg id="icon-ft_flash_box" width="32" height="32" viewBox="0 0 32 32" x="288" y="0">
<path fill="#ff5050" d="M25.067 8.533h-8.533v-8.533h-14.933v32h23.467z"></path>
<path fill="#ffd2dd" d="M25.067 8.533l-8.533-8.533v8.533z"></path>
<path fill="#fff" d="M13.44 13.12c0.107 0 0.32 0 0.533 0v1.92c-0.107 0-0.32 0-0.64 0s-0.533 0.107-0.64 0.213c-0.107 0.107-0.213 0.32-0.213 0.533s0 0.427 0 0.747h1.6v1.6h-1.6v7.36h-2.453v-7.36h-1.28v-1.707h1.28v-0.533c0-0.96 0.213-1.6 0.533-2.027 0.32-0.533 1.173-0.853 2.453-0.853 0.107 0.107 0.213 0.107 0.427 0.107z"></path>
<path fill="#fff" d="M17.707 25.493h-2.347v-12.267h2.347v12.267z"></path>
<path fill="#4178be" d="M17.493 31.68c-0.853 0-1.6-0.747-1.6-1.6v-10.987c0-0.853 0.747-1.6 1.6-1.6h10.987c0.853 0 1.6 0.747 1.6 1.6v10.987c0 0.853-0.747 1.6-1.6 1.6h-10.987z"></path>
<path fill="#fff" d="M28.48 17.813c0.747 0 1.28 0.533 1.28 1.28v10.987c0 0.747-0.533 1.28-1.28 1.28h-10.987c-0.747 0-1.28-0.533-1.28-1.28v-10.987c0-0.747 0.533-1.28 1.28-1.28h10.987zM28.48 17.067h-10.987c-1.067 0-2.027 0.853-2.027 2.027v10.987c0 1.067 0.853 2.027 2.027 2.027h10.987c1.067 0 2.027-0.853 2.027-2.027v-10.987c-0.107-1.173-0.96-2.027-2.027-2.027v0z"></path>
<path fill="#fff" d="M25.813 24.96c-0.107-0.533-0.64-2.027-2.347-2.133-0.64 0-1.28 0.107-1.92 0.427 0-0.747 0-1.387 0-2.133 0-0.427-0.213-0.64-0.533-0.64s-0.533 0.213-0.533 0.64c0 1.387 0 2.88 0 4.267 0 1.067 0.64 2.133 1.6 2.453 1.173 0.427 2.24 0.107 2.88-0.533 0.853-0.64 0.96-1.6 0.853-2.347zM23.147 27.093c-0.533 0-1.067-0.32-1.387-0.747-0.107-0.213-0.213-0.427-0.213-0.747 0-0.107 0-0.107 0-0.213s0-0.107 0-0.213c0.107-0.747 0.747-1.387 1.6-1.387 0.533 0 1.067 0.32 1.387 0.747 0.213 0.213 0.32 0.533 0.32 0.853 0 0.96-0.747 1.707-1.707 1.707z"></path>
</svg>
<svg id="icon-ft_folder_box" width="32" height="32" viewBox="0 0 32 32" x="336" y="0">
<path fill="#676767" d="M10.667 12.8h-9.6v19.2h25.6v-17.067h-16v-2.133z"></path>
<path fill="#fff" d="M9.6 13.867v2.133h16v14.933h-23.467v-17.067h7.467z"></path>
<path fill="#4178be" d="M18.027 31.68c-0.853 0-1.6-0.747-1.6-1.6v-10.987c0-0.853 0.747-1.6 1.6-1.6h10.987c0.853 0 1.6 0.747 1.6 1.6v10.987c0 0.853-0.747 1.6-1.6 1.6h-10.987z"></path>
<path fill="#fff" d="M28.907 17.813c0.747 0 1.28 0.533 1.28 1.28v10.987c0 0.747-0.533 1.28-1.28 1.28h-10.88c-0.747 0-1.28-0.533-1.28-1.28v-10.987c0-0.747 0.533-1.28 1.28-1.28h10.88zM28.907 17.067h-10.88c-1.067 0-2.027 0.853-2.027 2.027v10.987c0 1.067 0.853 2.027 2.027 2.027h10.987c1.067 0 2.027-0.853 2.027-2.027v-10.987c-0.107-1.173-0.96-2.027-2.133-2.027v0z"></path>
<path fill="#fff" d="M26.347 24.96c-0.107-0.533-0.64-2.027-2.347-2.133-0.64 0-1.28 0.107-1.92 0.427 0-0.747 0-1.387 0-2.133 0-0.427-0.213-0.64-0.533-0.64s-0.533 0.213-0.533 0.64c0 1.387 0 2.88 0 4.267 0 1.067 0.64 2.133 1.6 2.453 1.173 0.427 2.24 0.107 2.88-0.533 0.747-0.64 0.96-1.6 0.853-2.347zM23.68 27.093c-0.533 0-1.067-0.32-1.387-0.747-0.107-0.213-0.213-0.427-0.213-0.747 0-0.107 0-0.107 0-0.213s0-0.107 0-0.213c0.107-0.747 0.747-1.387 1.6-1.387 0.533 0 1.067 0.32 1.387 0.747 0.213 0.213 0.32 0.533 0.32 0.853-0.107 0.96-0.853 1.707-1.707 1.707z"></path>
</svg>
<svg id="icon-ft_layout_box" width="29" height="32" viewBox="0 0 29 32" x="384" y="0">
<path fill="#676767" d="M16.533 0h-16.533v32h23.467v-25.067l-6.933-6.933zM16 7.467v-6.4l6.4 6.4h-6.4z"></path>
<path fill="#fff" d="M22.4 30.933h-21.333v-29.867h13.867v7.467h7.467z"></path>
<path fill="#4178be" d="M4.267 11.733h14.933v3.2h-14.933v-3.2z"></path>
<path fill="#4178be" d="M4.267 16h6.4v9.6h-6.4v-9.6z"></path>
<path fill="#4178be" d="M11.733 16h7.467v1.067h-7.467v-1.067z"></path>
<path fill="#4178be" d="M11.733 18.133h7.467v1.067h-7.467v-1.067z"></path>
<path fill="#4178be" d="M11.733 20.267h7.467v1.067h-7.467v-1.067z"></path>
<path fill="#4178be" d="M11.733 22.4h7.467v1.067h-7.467v-1.067z"></path>
<path fill="#4178be" d="M11.733 24.533h7.467v1.067h-7.467v-1.067z"></path>
<path fill="#4178be" d="M15.893 31.68c-0.853 0-1.6-0.747-1.6-1.6v-10.987c0-0.853 0.747-1.6 1.6-1.6h10.987c0.853 0 1.6 0.747 1.6 1.6v10.987c0 0.853-0.747 1.6-1.6 1.6h-10.987z"></path>
<path fill="#fff" d="M26.773 17.813c0.747 0 1.28 0.533 1.28 1.28v10.987c0 0.747-0.533 1.28-1.28 1.28h-10.88c-0.747 0-1.28-0.533-1.28-1.28v-10.987c0-0.747 0.533-1.28 1.28-1.28h10.88zM26.773 17.067h-10.88c-1.067 0-2.027 0.853-2.027 2.027v10.987c0 1.067 0.853 2.027 2.027 2.027h10.987c1.067 0 2.027-0.853 2.027-2.027v-10.987c-0.107-1.173-0.96-2.027-2.133-2.027v0z"></path>
<path fill="#fff" d="M24.213 24.96c-0.107-0.533-0.64-2.027-2.347-2.133-0.64 0-1.28 0.107-1.92 0.427 0-0.747 0-1.387 0-2.133 0-0.427-0.213-0.64-0.533-0.64s-0.533 0.213-0.533 0.64c0 1.387 0 2.88 0 4.267 0 1.067 0.64 2.133 1.6 2.453 1.173 0.427 2.24 0.107 2.88-0.533 0.747-0.64 0.96-1.6 0.853-2.347zM21.547 27.093c-0.533 0-1.067-0.32-1.387-0.747-0.107-0.213-0.213-0.427-0.213-0.747 0-0.107 0-0.107 0-0.213s0-0.107 0-0.213c0.107-0.747 0.747-1.387 1.6-1.387 0.533 0 1.067 0.32 1.387 0.747 0.213 0.213 0.32 0.533 0.32 0.853-0.107 0.96-0.853 1.707-1.707 1.707z"></path>
</svg>
<svg id="icon-ft_pdf_box" width="32" height="32" viewBox="0 0 32 32" x="432" y="0">
<path fill="#ff5050" d="M25.067 8.533h-8.533v-8.533h-14.933v32h23.467z"></path>
<path fill="#ffd2dd" d="M25.067 8.533l-8.533-8.533v8.533z"></path>
<path fill="#fff" d="M10.24 16.747c0.533 0.533 0.747 1.28 0.747 2.347s-0.213 1.92-0.747 2.56c-0.533 0.533-1.173 0.853-1.92 0.853-0.533 0-0.96-0.107-1.28-0.32-0.213-0.107-0.32-0.32-0.533-0.64v3.307h-1.493v-8.747h1.6v0.96c0.213-0.32 0.32-0.533 0.533-0.64 0.32-0.32 0.853-0.427 1.28-0.427 0.747-0.107 1.387 0.213 1.813 0.747zM9.067 17.92c-0.213-0.32-0.533-0.533-1.067-0.533-0.64 0-0.96 0.32-1.28 0.853-0.107 0.32-0.213 0.64-0.213 1.173 0 0.747 0.213 1.28 0.533 1.493 0.213 0.213 0.533 0.213 0.853 0.213 0.427 0 0.853-0.213 1.067-0.533 0.32-0.32 0.427-0.853 0.427-1.387s-0.107-0.96-0.32-1.28z"></path>
<path fill="#fff" d="M15.467 16.213c0.32 0.213 0.533 0.427 0.747 0.64v-2.987h1.707v8.427h-1.6v-0.853c-0.213 0.32-0.533 0.64-0.747 0.853s-0.64 0.213-1.067 0.213c-0.747 0-1.387-0.32-1.813-0.853-0.533-0.64-0.747-1.387-0.747-2.24 0-1.067 0.213-1.92 0.747-2.56s1.173-0.96 1.92-0.96c0.213 0 0.64 0.107 0.853 0.32zM15.893 20.587c0.213-0.32 0.32-0.747 0.32-1.387 0-0.747-0.213-1.28-0.533-1.6-0.213-0.213-0.533-0.32-0.853-0.32-0.427 0-0.853 0.213-1.067 0.533s-0.32 0.853-0.32 1.387 0.107 1.067 0.32 1.387 0.533 0.533 1.067 0.533 0.853-0.213 1.067-0.533z"></path>
<path fill="#fff" d="M21.973 13.76c0.107 0 0.213 0 0.32 0v1.28c-0.107 0-0.213 0-0.427 0s-0.32 0-0.427 0.107-0.107 0.213-0.107 0.32 0 0.32 0 0.533h1.067v1.173h-1.067v5.013h-1.6v-5.013h-0.96v-1.173h0.853v-0.427c0-0.64 0.107-1.173 0.32-1.387 0.213-0.427 0.853-0.533 1.707-0.533 0.107 0.107 0.213 0.107 0.32 0.107z"></path>
<path fill="#4178be" d="M17.493 31.68c-0.853 0-1.6-0.747-1.6-1.6v-10.987c0-0.853 0.747-1.6 1.6-1.6h10.987c0.853 0 1.6 0.747 1.6 1.6v10.987c0 0.853-0.747 1.6-1.6 1.6h-10.987z"></path>
<path fill="#fff" d="M28.48 17.813c0.747 0 1.28 0.533 1.28 1.28v10.987c0 0.747-0.533 1.28-1.28 1.28h-10.987c-0.747 0-1.28-0.533-1.28-1.28v-10.987c0-0.747 0.533-1.28 1.28-1.28h10.987zM28.48 17.067h-10.987c-1.067 0-2.027 0.853-2.027 2.027v10.987c0 1.067 0.853 2.027 2.027 2.027h10.987c1.067 0 2.027-0.853 2.027-2.027v-10.987c-0.107-1.173-0.96-2.027-2.027-2.027v0z"></path>
<path fill="#fff" d="M25.813 24.96c-0.107-0.533-0.64-2.027-2.347-2.133-0.64 0-1.28 0.107-1.92 0.427 0-0.747 0-1.387 0-2.133 0-0.427-0.213-0.64-0.533-0.64s-0.533 0.213-0.533 0.64c0 1.387 0 2.88 0 4.267 0 1.067 0.64 2.133 1.6 2.453 1.173 0.427 2.24 0.107 2.88-0.533 0.853-0.64 0.96-1.6 0.853-2.347zM23.147 27.093c-0.533 0-1.067-0.32-1.387-0.747-0.107-0.213-0.213-0.427-0.213-0.747 0-0.107 0-0.107 0-0.213s0-0.107 0-0.213c0.107-0.747 0.747-1.387 1.6-1.387 0.533 0 1.067 0.32 1.387 0.747 0.213 0.213 0.32 0.533 0.32 0.853 0 0.96-0.747 1.707-1.707 1.707z"></path>
</svg>
<svg id="icon-ft_picture_box" width="32" height="32" viewBox="0 0 32 32" x="480" y="0">
<path fill="#7cc7ff" d="M25.067 8.533h-8.533v-8.533h-14.933v32h23.467z"></path>
<path fill="#c0e6ff" d="M25.067 8.533l-8.533-8.533v8.533z"></path>
<path fill="#4178be" d="M18.24 16l-8.853 10.027-3.84-4.053-3.947 4.053v5.973h23.467v-8.96z"></path>
<path fill="#fff" d="M12.267 14.4c0 1.473-1.194 2.667-2.667 2.667s-2.667-1.194-2.667-2.667c0-1.473 1.194-2.667 2.667-2.667s2.667 1.194 2.667 2.667z"></path>
<path fill="#4178be" d="M17.493 31.68c-0.853 0-1.6-0.747-1.6-1.6v-10.987c0-0.853 0.747-1.6 1.6-1.6h10.987c0.853 0 1.6 0.747 1.6 1.6v10.987c0 0.853-0.747 1.6-1.6 1.6h-10.987z"></path>
<path fill="#fff" d="M28.48 17.813c0.747 0 1.28 0.533 1.28 1.28v10.987c0 0.747-0.533 1.28-1.28 1.28h-10.987c-0.747 0-1.28-0.533-1.28-1.28v-10.987c0-0.747 0.533-1.28 1.28-1.28h10.987zM28.48 17.067h-10.987c-1.067 0-2.027 0.853-2.027 2.027v10.987c0 1.067 0.853 2.027 2.027 2.027h10.987c1.067 0 2.027-0.853 2.027-2.027v-10.987c-0.107-1.173-0.96-2.027-2.027-2.027v0z"></path>
<path fill="#fff" d="M25.813 24.96c-0.107-0.533-0.64-2.027-2.347-2.133-0.64 0-1.28 0.107-1.92 0.427 0-0.747 0-1.387 0-2.133 0-0.427-0.213-0.64-0.533-0.64s-0.533 0.213-0.533 0.64c0 1.387 0 2.88 0 4.267 0 1.067 0.64 2.133 1.6 2.453 1.173 0.427 2.24 0.107 2.88-0.533 0.853-0.64 0.96-1.6 0.853-2.347zM23.147 27.093c-0.533 0-1.067-0.32-1.387-0.747-0.107-0.213-0.213-0.427-0.213-0.747 0-0.107 0-0.107 0-0.213s0-0.107 0-0.213c0.107-0.747 0.747-1.387 1.6-1.387 0.533 0 1.067 0.32 1.387 0.747 0.213 0.213 0.32 0.533 0.32 0.853 0 0.96-0.747 1.707-1.707 1.707z"></path>
</svg>
<svg id="icon-ft_presentation_box" width="32" height="32" viewBox="0 0 32 32" x="528" y="0">
<path fill="#ff7832" d="M25.067 8.533h-8.533v-8.533h-14.933v32h23.467z"></path>
<path fill="#ffd4a0" d="M25.067 8.533l-8.533-8.533v8.533z"></path>
<path fill="#fff" d="M13.333 24.533c4.16 0 7.467-3.307 7.467-7.467s-3.307-7.467-7.467-7.467v7.467h-7.467c0 4.16 3.307 7.467 7.467 7.467zM13.333 18.133h1.067v-7.36c2.987 0.533 5.333 3.093 5.333 6.293 0 3.52-2.88 6.4-6.4 6.4-3.2 0-5.76-2.347-6.293-5.333h6.293z"></path>
<path fill="#fff" d="M12.267 9.707c-3.307 0.427-5.867 2.987-6.293 6.293h6.293v-6.293z"></path>
<path fill="#4178be" d="M17.493 31.68c-0.853 0-1.6-0.747-1.6-1.6v-10.987c0-0.853 0.747-1.6 1.6-1.6h10.987c0.853 0 1.6 0.747 1.6 1.6v10.987c0 0.853-0.747 1.6-1.6 1.6h-10.987z"></path>
<path fill="#fff" d="M28.373 17.813c0.747 0 1.28 0.533 1.28 1.28v10.987c0 0.747-0.533 1.28-1.28 1.28h-10.88c-0.747 0-1.28-0.533-1.28-1.28v-10.987c0-0.747 0.533-1.28 1.28-1.28h10.88zM28.373 17.067h-10.88c-1.067 0-2.027 0.853-2.027 2.027v10.987c0 1.067 0.853 2.027 2.027 2.027h10.987c1.067 0 2.027-0.853 2.027-2.027v-10.987c-0.107-1.173-0.96-2.027-2.133-2.027v0z"></path>
<path fill="#fff" d="M25.813 24.96c-0.107-0.533-0.64-2.027-2.347-2.133-0.64 0-1.28 0.107-1.92 0.427 0-0.747 0-1.387 0-2.133 0-0.427-0.213-0.64-0.533-0.64s-0.533 0.213-0.533 0.64c0 1.387 0 2.88 0 4.267 0 1.067 0.64 2.133 1.6 2.453 1.173 0.427 2.24 0.107 2.88-0.533 0.747-0.64 0.96-1.6 0.853-2.347zM23.147 27.093c-0.533 0-1.067-0.32-1.387-0.747-0.107-0.213-0.213-0.427-0.213-0.747 0-0.107 0-0.107 0-0.213s0-0.107 0-0.213c0.107-0.747 0.747-1.387 1.6-1.387 0.533 0 1.067 0.32 1.387 0.747 0.213 0.213 0.32 0.533 0.32 0.853-0.107 0.96-0.853 1.707-1.707 1.707z"></path>
</svg>
<svg id="icon-ft_spreadsheet_box" width="32" height="32" viewBox="0 0 32 32" x="576" y="0">
<path fill="#00b4a0" d="M25.067 8.533h-8.533v-8.533h-14.933v32h23.467z"></path>
<path fill="#a7fae6" d="M25.067 8.533l-8.533-8.533v8.533z"></path>
<path fill="#fff" d="M4.8 11.733v13.867h17.067v-13.867h-17.067zM10.133 12.8h10.667v3.2h-10.667v-3.2zM5.867 12.8h3.2v3.2h-3.2v-3.2zM5.867 17.067h3.2v3.2h-3.2v-3.2zM5.867 24.533v-3.2h3.2v3.2h-3.2zM20.8 24.533h-10.667v-3.2h10.667v3.2zM10.133 20.267v-3.2h10.667v3.2h-10.667z"></path>
<path fill="#4178be" d="M17.493 31.68c-0.853 0-1.6-0.747-1.6-1.6v-10.987c0-0.853 0.747-1.6 1.6-1.6h10.987c0.853 0 1.6 0.747 1.6 1.6v10.987c0 0.853-0.747 1.6-1.6 1.6h-10.987z"></path>
<path fill="#fff" d="M28.48 17.813c0.747 0 1.28 0.533 1.28 1.28v10.987c0 0.747-0.533 1.28-1.28 1.28h-10.987c-0.747 0-1.28-0.533-1.28-1.28v-10.987c0-0.747 0.533-1.28 1.28-1.28h10.987zM28.48 17.067h-10.987c-1.067 0-2.027 0.853-2.027 2.027v10.987c0 1.067 0.853 2.027 2.027 2.027h10.987c1.067 0 2.027-0.853 2.027-2.027v-10.987c0-1.173-0.96-2.027-2.027-2.027v0z"></path>
<path fill="#fff" d="M25.813 24.96c-0.107-0.533-0.64-2.027-2.347-2.133-0.64 0-1.28 0.107-1.92 0.427 0-0.747 0-1.387 0-2.133 0-0.427-0.213-0.64-0.533-0.64s-0.533 0.213-0.533 0.64c0 1.387 0 2.88 0 4.267 0 1.067 0.64 2.133 1.6 2.453 1.173 0.427 2.24 0.107 2.88-0.533 0.853-0.64 0.96-1.6 0.853-2.347zM23.253 27.093c-0.533 0-1.067-0.32-1.387-0.747-0.107-0.213-0.213-0.427-0.213-0.747 0-0.107 0-0.107 0-0.213s0-0.107 0-0.213c0.107-0.747 0.747-1.387 1.6-1.387 0.533 0 1.067 0.32 1.387 0.747 0.213 0.213 0.32 0.533 0.32 0.853-0.107 0.96-0.853 1.707-1.707 1.707z"></path>
</svg>
<svg id="icon-ft_video_box" width="32" height="32" viewBox="0 0 32 32" x="624" y="0">
<path fill="#af6ee8" d="M25.067 8.533h-8.533v-8.533h-14.933v32h23.467z"></path>
<path fill="#eed2ff" d="M25.067 8.533l-8.533-8.533v8.533z"></path>
<path fill="#fff" d="M8 22.4l10.667-5.333-10.667-5.333z"></path>
<path fill="#fff" d="M4.8 2.133l-3.2-2.133v2.133l3.2 2.133z"></path>
<path fill="#fff" d="M4.8 6.4l-3.2-2.133v2.133l3.2 2.133z"></path>
<path fill="#fff" d="M4.8 10.667l-3.2-2.133v2.133l3.2 2.133z"></path>
<path fill="#fff" d="M4.8 14.933l-3.2-2.133v2.133l3.2 2.133z"></path>
<path fill="#fff" d="M4.8 19.2l-3.2-2.133v2.133l3.2 2.133z"></path>
<path fill="#fff" d="M4.8 23.467l-3.2-2.133v2.133l3.2 2.133z"></path>
<path fill="#fff" d="M25.067 10.667l-3.2-2.133v2.133l3.2 2.133z"></path>
<path fill="#fff" d="M25.067 14.933l-3.2-2.133v2.133l3.2 2.133z"></path>
<path fill="#fff" d="M25.067 19.2l-3.2-2.133v2.133l3.2 2.133z"></path>
<path fill="#fff" d="M25.067 23.467l-3.2-2.133v2.133l3.2 2.133z"></path>
<path fill="#fff" d="M25.067 27.733l-3.2-2.133v2.133l3.2 2.133z"></path>
<path fill="#fff" d="M25.067 32l-3.2-2.133v2.133z"></path>
<path fill="#fff" d="M4.8 27.733l-3.2-2.133v2.133l3.2 2.133z"></path>
<path fill="#fff" d="M4.8 32l-3.2-2.133v2.133z"></path>
<path fill="#4178be" d="M17.493 31.68c-0.853 0-1.6-0.747-1.6-1.6v-10.987c0-0.853 0.747-1.6 1.6-1.6h10.987c0.853 0 1.6 0.747 1.6 1.6v10.987c0 0.853-0.747 1.6-1.6 1.6h-10.987z"></path>
<path fill="#fff" d="M28.48 17.813c0.747 0 1.28 0.533 1.28 1.28v10.987c0 0.747-0.533 1.28-1.28 1.28h-10.987c-0.747 0-1.28-0.533-1.28-1.28v-10.987c0-0.747 0.533-1.28 1.28-1.28h10.987zM28.48 17.067h-10.987c-1.067 0-2.027 0.853-2.027 2.027v10.987c0 1.067 0.853 2.027 2.027 2.027h10.987c1.067 0 2.027-0.853 2.027-2.027v-10.987c-0.107-1.173-0.96-2.027-2.027-2.027v0z"></path>
<path fill="#fff" d="M25.813 24.96c-0.107-0.533-0.64-2.027-2.347-2.133-0.64 0-1.28 0.107-1.92 0.427 0-0.747 0-1.387 0-2.133 0-0.427-0.213-0.64-0.533-0.64s-0.533 0.213-0.533 0.64c0 1.387 0 2.88 0 4.267 0 1.067 0.64 2.133 1.6 2.453 1.173 0.427 2.24 0.107 2.88-0.533 0.853-0.64 0.96-1.6 0.853-2.347zM23.147 27.093c-0.533 0-1.067-0.32-1.387-0.747-0.107-0.213-0.213-0.427-0.213-0.747 0-0.107 0-0.107 0-0.213s0-0.107 0-0.213c0.107-0.747 0.747-1.387 1.6-1.387 0.533 0 1.067 0.32 1.387 0.747 0.213 0.213 0.32 0.533 0.32 0.853 0 0.96-0.747 1.707-1.707 1.707z"></path>
</svg>
<svg id="icon-ft_wordprocessing_box" width="32" height="32" viewBox="0 0 32 32" x="672" y="0">
<path fill="#5596e6" d="M25.067 8.533h-8.533v-8.533h-14.933v32h23.467z"></path>
<path fill="#c0e6ff" d="M25.067 8.533l-8.533-8.533v8.533z"></path>
<path fill="#fff" d="M4.8 11.733h17.067v1.067h-17.067v-1.067z"></path>
<path fill="#fff" d="M4.8 18.133h17.067v1.067h-17.067v-1.067z"></path>
<path fill="#fff" d="M4.8 24.533h17.067v1.067h-17.067v-1.067z"></path>
<path fill="#fff" d="M4.8 14.933h13.653v1.067h-13.653v-1.067z"></path>
<path fill="#fff" d="M4.8 21.333h13.653v1.067h-13.653v-1.067z"></path>
<path fill="#4178be" d="M17.493 31.68c-0.853 0-1.6-0.747-1.6-1.6v-10.987c0-0.853 0.747-1.6 1.6-1.6h10.987c0.853 0 1.6 0.747 1.6 1.6v10.987c0 0.853-0.747 1.6-1.6 1.6h-10.987z"></path>
<path fill="#fff" d="M28.48 17.813c0.747 0 1.28 0.533 1.28 1.28v10.987c0 0.747-0.533 1.28-1.28 1.28h-10.987c-0.747 0-1.28-0.533-1.28-1.28v-10.987c0-0.747 0.533-1.28 1.28-1.28h10.987zM28.48 17.067h-10.987c-1.067 0-2.027 0.853-2.027 2.027v10.987c0 1.067 0.853 2.027 2.027 2.027h10.987c1.067 0 2.027-0.853 2.027-2.027v-10.987c0-1.173-0.96-2.027-2.027-2.027v0z"></path>
<path fill="#fff" d="M25.813 24.96c-0.107-0.533-0.64-2.027-2.347-2.133-0.64 0-1.28 0.107-1.92 0.427 0-0.747 0-1.387 0-2.133 0-0.427-0.213-0.64-0.533-0.64s-0.533 0.213-0.533 0.64c0 1.387 0 2.88 0 4.267 0 1.067 0.64 2.133 1.6 2.453 1.173 0.427 2.24 0.107 2.88-0.533 0.853-0.64 0.96-1.6 0.853-2.347zM23.253 27.093c-0.533 0-1.067-0.32-1.387-0.747-0.107-0.213-0.213-0.427-0.213-0.747 0-0.107 0-0.107 0-0.213s0-0.107 0-0.213c0.107-0.747 0.747-1.387 1.6-1.387 0.533 0 1.067 0.32 1.387 0.747 0.213 0.213 0.32 0.533 0.32 0.853-0.107 0.96-0.853 1.707-1.707 1.707z"></path>
</svg>
<svg id="icon-ft_zip_box" width="32" height="32" viewBox="0 0 32 32" x="720" y="0">
<path fill="#676767" d="M18.133 0h-16.533v32h23.467v-25.067l-6.933-6.933zM17.6 7.467v-6.4l6.4 6.4h-6.4z"></path>
<path fill="#fff" d="M24 30.933h-21.333v-29.867h13.867v7.467h7.467z"></path>
<path fill="#676767" d="M12.267 5.333h2.133v2.133h-2.133v-2.133z"></path>
<path fill="#676767" d="M12.267 8.533h2.133v2.133h-2.133v-2.133z"></path>
<path fill="#676767" d="M12.267 11.733h2.133v2.133h-2.133v-2.133z"></path>
<path fill="#676767" d="M12.267 14.933h2.133v2.133h-2.133v-2.133z"></path>
<path fill="#676767" d="M12.267 18.133l-1.067 3.307v2.027h4.267v-2.027l-1.067-3.307z"></path>
<path fill="#fff" d="M17.6 1.067l6.4 6.4h-6.4z"></path>
<path fill="#4178be" d="M17.493 31.68c-0.853 0-1.6-0.747-1.6-1.6v-10.987c0-0.853 0.747-1.6 1.6-1.6h10.987c0.853 0 1.6 0.747 1.6 1.6v10.987c0 0.853-0.747 1.6-1.6 1.6h-10.987z"></path>
<path fill="#fff" d="M28.373 17.813c0.747 0 1.28 0.533 1.28 1.28v10.987c0 0.747-0.533 1.28-1.28 1.28h-10.88c-0.747 0-1.28-0.533-1.28-1.28v-10.987c0-0.747 0.533-1.28 1.28-1.28h10.88zM28.373 17.067h-10.88c-1.067 0-2.027 0.853-2.027 2.027v10.987c0 1.067 0.853 2.027 2.027 2.027h10.987c1.067 0 2.027-0.853 2.027-2.027v-10.987c-0.107-1.173-0.96-2.027-2.133-2.027v0z"></path>
<path fill="#fff" d="M25.813 24.96c-0.107-0.533-0.64-2.027-2.347-2.133-0.64 0-1.28 0.107-1.92 0.427 0-0.747 0-1.387 0-2.133 0-0.427-0.213-0.64-0.533-0.64s-0.533 0.213-0.533 0.64c0 1.387 0 2.88 0 4.267 0 1.067 0.64 2.133 1.6 2.453 1.173 0.427 2.24 0.107 2.88-0.533 0.747-0.64 0.96-1.6 0.853-2.347zM23.147 27.093c-0.533 0-1.067-0.32-1.387-0.747-0.107-0.213-0.213-0.427-0.213-0.747 0-0.107 0-0.107 0-0.213s0-0.107 0-0.213c0.107-0.747 0.747-1.387 1.6-1.387 0.533 0 1.067 0.32 1.387 0.747 0.213 0.213 0.32 0.533 0.32 0.853-0.107 0.96-0.853 1.707-1.707 1.707z"></path>
</svg>
</svg>
