<?xml version="1.0" encoding="utf-8"?>
<!-- Generator: Adobe Illustrator 17.1.0, SVG Export Plug-In . SVG Version: 6.00 Build 0)  -->
<!DOCTYPE svg PUBLIC "-//W3C//DTD SVG 1.1//EN" "http://www.w3.org/Graphics/SVG/1.1/DTD/svg11.dtd">
<svg version="1.1" id="_x21_" xmlns="http://www.w3.org/2000/svg" xmlns:xlink="http://www.w3.org/1999/xlink" x="0px" y="0px"
	 viewBox="0 0 30 30" enable-background="new 0 0 30 30" xml:space="preserve">
<g>
	<path fill="#FFFFFF" d="M15,3C8.4,3,3,8.4,3,15s5.4,12,12,12s12-5.4,12-12S21.6,3,15,3z M15,25C9.5,25,5,20.5,5,15S9.5,5,15,5
		s10,4.5,10,10S20.5,25,15,25z"/>
	<g>
		<rect fill="#FFFFFF" x="11.1" y="14.8" transform="matrix(0.5 -0.866 0.866 0.5 -9.4226 19.3544)" width="2" height="6"/>
		<rect fill="#FFFFFF" x="15.3" y="8.5" transform="matrix(0.866 0.5 -0.5 0.866 9.435 -6.1975)" width="2" height="12"/>
	</g>
</g>
</svg>
