<?xml version="1.0" encoding="UTF-8" standalone="no"?>
<svg
   class="MuiSvgIcon-root cnx8HelpSVG"
   focusable="false"
   viewBox="0 0 28 28"
   width="15.75"
   height="15.75"
   fill="#3d5466"
   aria-hidden="true"
   role="presentation"
   data-mui-test="helpIcon"
   version="1.1"
   id="svg8"
   sodipodi:docname="d6bed57286e38d6a83402bdad130637c.svg"
   xmlns:inkscape="http://www.inkscape.org/namespaces/inkscape"
   xmlns:sodipodi="http://sodipodi.sourceforge.net/DTD/sodipodi-0.dtd"
   xmlns="http://www.w3.org/2000/svg"
   xmlns:svg="http://www.w3.org/2000/svg">
  <defs
     id="defs12" />
  <sodipodi:namedview
     id="namedview10"
     pagecolor="#ffffff"
     bordercolor="#666666"
     borderopacity="1.0"
     inkscape:pageshadow="2"
     inkscape:pageopacity="0.0"
     inkscape:pagecheckerboard="0" />
  <path
     d="M 14,0 A 14,14 0 1 0 28,14 14,14 0 0 0 14,0 Z m 0,26 A 12,12 0 1 1 26,14 12,12 0 0 1 14,26 Z"
     id="path2" />
  <circle
     cx="14"
     cy="21.5"
     r="1.5"
     id="circle4" />
  <path
     d="M 15,6 H 13.5 A 4.49,4.49 0 0 0 9,10.5 V 11 h 2 V 10.5 A 2.5,2.5 0 0 1 13.5,8 H 15 a 2.5,2.5 0 0 1 0,5 h -2 v 4.5 h 2 V 15 a 4.5,4.5 0 0 0 0,-9 z"
     id="path6" />
</svg>
