<?xml version="1.0" encoding="UTF-8"?>
<svg width="144px" height="111px" viewBox="0 0 144 111" version="1.1" xmlns="http://www.w3.org/2000/svg" xmlns:xlink="http://www.w3.org/1999/xlink">
    <!-- Generator: Sketch 50.2 (55047) - http://www.bohemiancoding.com/sketch -->
    <title>Group 30 Copy</title>
    <desc>Created with Sketch.</desc>
    <defs>
        <path d="M23.1585395,0 L23.1585395,7.4431018 C23.1585395,8.5476713 24.05397,9.4431018 25.1585395,9.4431018 L32.4219554,9.4431018 L32.4219554,35.7724072 C32.4219554,36.8769767 31.5265249,37.7724072 30.4219554,37.7724072 L2,37.7724072 C0.8954305,37.7724072 1.3527075e-16,36.8769767 0,35.7724072 L0,2 C-1.3527075e-16,0.8954305 0.8954305,2.02906125e-16 2,0 L23.1585395,0 Z" id="path-1"></path>
        <path d="M17.8621534,0 L17.8621534,5.02362629 C17.8621534,6.12819579 18.7575839,7.02362629 19.8621534,7.02362629 L25.0070148,7.02362629 L25.0070148,26.0945052 C25.0070148,27.1990747 24.1115843,28.0945052 23.0070148,28.0945052 L2,28.0945052 C0.8954305,28.0945052 1.3527075e-16,27.1990747 0,26.0945052 L0,2 C-1.3527075e-16,0.8954305 0.8954305,2.02906125e-16 2,0 L17.8621534,0 Z" id="path-3"></path>
    </defs>
    <g id="mixed-style" stroke="none" stroke-width="1" fill="none" fill-rule="evenodd">
        <g id="Artboard" transform="translate(-1.000000, -84.000000)">
            <g id="Group-30-Copy" transform="translate(0.000000, 85.000000)">
                <g id="Group-17" transform="translate(0.000000, 8.000000)">
                    <g id="Group-34" transform="translate(41.000000, 0.000000)" stroke="#777677">
                        <rect id="Rectangle-33" x="0.5" y="0.5" width="56" height="56" rx="2"></rect>
                        <polyline id="Path-28" points="0.497820464 46.0701738 11.9799759 27.8522205 23.6889195 38.8888327 39.441316 16 56.4424184 40.0787696"></polyline>
                        <circle id="Oval-23" cx="17.5" cy="14.5" r="6.5"></circle>
                    </g>
                    <g id="Group-2" transform="translate(126.481356, 63.696659) rotate(-315.000000) translate(-126.481356, -63.696659) translate(109.481356, 44.196659)">
                        <g id="Group-27-Copy-2" transform="translate(0.308224, 0.339957)">
                            <g id="Group-18" transform="translate(0.000000, -0.000000)">
                                <polygon id="Triangle-2" points="22.8896322 0.376348512 31.9939779 9.66304255 22.7643516 9.79284631"></polygon>
                                <mask id="mask-2" fill="white">
                                    <use xlink:href="#path-1"></use>
                                </mask>
                                <path stroke="#777677" d="M22.6585395,0.5 L2,0.5 C1.17157288,0.5 0.5,1.17157288 0.5,2 L0.5,35.7724072 C0.5,36.6008343 1.17157288,37.2724072 2,37.2724072 L30.4219554,37.2724072 C31.2503825,37.2724072 31.9219554,36.6008343 31.9219554,35.7724072 L31.9219554,9.9431018 L25.1585395,9.9431018 C23.7778277,9.9431018 22.6585395,8.82381367 22.6585395,7.4431018 L22.6585395,0.5 Z"></path>
                            </g>
                            <path d="M23.1496286,0.707974011 L31.7136713,9.41728242" id="Line" stroke="#777677" stroke-linecap="square"></path>
                        </g>
                        <g id="Group-4-Copy-2" transform="translate(4.884118, 19.080491)" stroke="#777677" stroke-linecap="round">
                            <path d="M0.196057292,0.595949282 L20.5860157,0.595949282" id="Line"></path>
                            <path d="M1.37240105,6.15814258 L15.3150206,6.15814258" id="Line-Copy"></path>
                        </g>
                    </g>
                    <g id="Group-2-Copy" transform="translate(19.668087, 70.322182) rotate(-30.000000) translate(-19.668087, -70.322182) translate(6.168087, 55.322182)">
                        <g id="Group-27-Copy-2" transform="translate(0.237733, 0.252855)">
                            <g id="Group-18">
                                <polygon id="Triangle-2" points="17.6547455 0.279921932 24.6769163 7.18721466 17.5581168 7.2837606"></polygon>
                                <mask id="mask-4" fill="white">
                                    <use xlink:href="#path-3"></use>
                                </mask>
                                <path stroke="#777677" d="M17.3621534,0.5 L2,0.5 C1.17157288,0.5 0.5,1.17157288 0.5,2 L0.5,26.0945052 C0.5,26.9229323 1.17157288,27.5945052 2,27.5945052 L23.0070148,27.5945052 C23.8354419,27.5945052 24.5070148,26.9229323 24.5070148,26.0945052 L24.5070148,7.52362629 L19.8621534,7.52362629 C18.4814415,7.52362629 17.3621534,6.40433817 17.3621534,5.02362629 L17.3621534,0.5 Z"></path>
                            </g>
                        </g>
                        <path d="M18.1009322,0.937741387 L24.542243,7.28509195" id="Line" stroke="#777677" stroke-linecap="square"></path>
                        <g id="Group-4-Copy-2" transform="translate(3.767114, 14.191761)" stroke="#777677" stroke-linecap="round">
                            <path d="M0.151218752,0.443257431 L15.8779689,0.443257431" id="Line"></path>
                            <path d="M1.05853126,4.58032679 L11.8124568,4.58032679" id="Line-Copy"></path>
                        </g>
                    </g>
                </g>
                <path d="M115.168695,15.9820684 C123.873502,24.652367 129.693122,36.230527 131.056701,49.1417122 L129.743546,47.8285572 C128.962497,47.0475086 127.696167,47.0475086 126.915118,47.8285572 L103.03442,71.7092553 C102.253372,72.4903039 102.253372,73.7566339 103.03442,74.5376824 L118.676055,90.1793168 C108.612711,102.291171 93.4559814,110 76.5033113,110 C58.1471618,110 41.8966273,100.961937 31.9377918,87.0825071 L34.9720108,85.3307002 C35.9285957,84.7784149 36.2563453,83.5552339 35.7040601,82.598649 L25.9736098,65.7450388 L22.5314952,64.9151527 C21.9474399,61.6989469 21.6423841,58.3851886 21.6423841,55 C21.6423841,38.1988087 29.1567736,23.1571463 41,13.0686406 L41,63 C41,64.1045695 41.8954305,65 43,65 L96,65 C97.1045695,65 98,64.1045695 98,63 L98,10 C98,8.8954305 97.1045695,8 96,8 L47.9945118,8 C56.3026519,2.92409778 66.0623652,0 76.5033113,0 C88.1978246,0 99.0377042,3.66839843 107.940495,9.91999676 C108.758908,13.2423484 111.65305,15.7477815 115.168695,15.9820684 Z M83.5231788,92.266055 C85.7323178,92.266055 87.5231788,90.475194 87.5231788,88.266055 C87.5231788,86.056916 85.7323178,84.266055 83.5231788,84.266055 C81.3140398,84.266055 79.5231788,86.056916 79.5231788,88.266055 C79.5231788,90.475194 81.3140398,92.266055 83.5231788,92.266055 Z M124.304636,34.7798165 C125.409205,34.7798165 126.304636,33.884386 126.304636,32.7798165 C126.304636,31.675247 125.409205,30.7798165 124.304636,30.7798165 C123.200066,30.7798165 122.304636,31.675247 122.304636,32.7798165 C122.304636,33.884386 123.200066,34.7798165 124.304636,34.7798165 Z M55.3509934,101.889908 C56.4555629,101.889908 57.3509934,100.994478 57.3509934,99.8899083 C57.3509934,98.7853388 56.4555629,97.8899083 55.3509934,97.8899083 C54.2464239,97.8899083 53.3509934,98.7853388 53.3509934,99.8899083 C53.3509934,100.994478 54.2464239,101.889908 55.3509934,101.889908 Z" id="Combined-Shape" fill="#F6F6F6" style="mix-blend-mode: multiply;"></path>
                <circle id="Oval-5" stroke="#777677" cx="115.708609" cy="8" r="8"></circle>
                <circle id="Oval-5-Copy" stroke="#777677" cx="83.5231788" cy="88.266055" r="4"></circle>
                <circle id="Oval-5-Copy-2" stroke="#777677" cx="21.1258278" cy="28.2385321" r="2"></circle>
                <circle id="Oval-5-Copy-3" stroke="#777677" cx="124.304636" cy="32.7798165" r="2"></circle>
                <circle id="Oval-5-Copy-4" stroke="#777677" cx="55.3509934" cy="99.8899083" r="2"></circle>
                <circle id="Oval-5-Copy-5" stroke="#777677" cx="10.0529801" cy="48.4220183" r="2"></circle>
            </g>
        </g>
    </g>
</svg>